# xmcd
#
# Track frame offsets: 
#        182
#        16842
#        30712
#        51422
#        77145
#        91392
#        107130
#        122567
#        139122
#        152752
#
# Disc length: 2319 seconds
#
# Revision: 3
# Processed by: cddbd v1.5.2PL0 Copyright (c) Steve Scherf et al.
# Submitted via: ExactAudioCopy v0.99pb5
#
DISCID=7b090d0a
DTITLE=Little Texas - Kick A Little
DYEAR=1994
DGENRE=Country
TTITLE0=Kick A Little
TTITLE1=I'd Hold On To Her
TTITLE2=Amy's Back In Austin
TTITLE3=Southern Grace
TTITLE4=She's Cool
TTITLE5=Your Day's Are Numbered
TTITLE6=Inside
TTITLE7=A Night I'll Never Remember
TTITLE8=Hit Country Song
TTITLE9=Redneck Like Me
EXTD=
EXTT0=
EXTT1=
EXTT2=
EXTT3=
EXTT4=
EXTT5=
EXTT6=
EXTT7=
EXTT8=
EXTT9=
PLAYORDER=
